_________________________  Visit us at _________________________
  
http://p2pdl.com  ____________________________  http://p2pdl.com


Elizabethtown 2005 WEBRip 480p x264 AAC - VYTO

Genre: Comedy | Drama | Romance
Plot: During an outrageous memorial for a Southern patriarch, an unexpected romance blooms between a
young woman and man.
Director: Cameron Crowe
Stars: Orlando Bloom, Kirsten Dunst, Susan Sarandon
Rated: Rated PG-13 for language and some sexual references

Info: 
http://www.imdb.com/title/tt0368709/

Trailer:

General
Complete name                  : Elizabethtown 2005 WEBRip 480p x264 AAC - VYTO.mp4
Format                         : MPEG-4
File size                      : 356 MiB
Duration                       : 2h 3mn
Overall bit rate mode          : Variable
Overall bit rate               : 402 Kbps

Video
Format                         : AVC
Format/Info                    : Advanced Video Codec
Format profile                 : High 10@L3.0
Bit rate                       : 359 Kbps
Width                          : 720 pixels
Height                         : 400 pixels
Display aspect ratio           : 16:9
Frame rate mode                : Constant
Frame rate                     : 23.976 fps
Bit depth                      : 10 bits
Stream size                    : 318 MiB (89%)

Audio
Format                         : AAC
Format/Info                    : Advanced Audio Codec
Bit rate mode                  : Variable
Bit rate                       : 39.9 Kbps
Channel(s)                     : 2 channels
Channel positions              : Front: L R
Sampling rate                  : 48.0 KHz / 24.0 KHz
Stream size                    : 35.3 MiB (10%)
Language                       : English

Subtitle                       : Yes (English)
Source                         : 720p.WEB-DL.H264-HDC (Thanks)

Screenshots:
 
http://www.ultraimg.com/images/VR07.jpg 
http://www.ultraimg.com/images/J5skj.jpg 
http://www.ultraimg.com/images/xTJ4O.jpg 
http://www.ultraimg.com/images/m5lk0.jpg 
http://www.ultraimg.com/images/HQpr.jpg 
http://www.ultraimg.com/images/I16H3.jpg


----------------------------------------------------------------------------------------------------


Encoded using revolutionary 10bit encoding, which enables us to provide you more crispier 
and sharper images at small sizes, just make sure you follow our instructions without a fault.
Recommend to you to use latest version of VLC player. Install K-Lite Codec Pack or shark007 codecs
in case of any kind of problem in playback (For non-VLC Media Player users). Alternatively, install
Core AVC codecs, the fastest decoder that there is coupled with Community Center Codec Pack and play
on Windows Media Player Classic. Check sample to be sure.
Enjoy!

Encoder Notes:Looking For Early Access To Anything You Can Provide DVDScr, R5, DVDR, BluRay, Direct
Audio, Music Releases and Seedboxes. We require dedicated servers, so as to do more 
and fast releases of movies.
If You Got anything to offer please contact us at "prg@hush.com".

Face book Fan Page:   
http://www.fb.me/p2pdl